<?xml version="1.0" standalone="no"?>
<!DOCTYPE svg PUBLIC "-//W3C//DTD SVG 20010904//EN"
 "http://www.w3.org/TR/2001/REC-SVG-20010904/DTD/svg10.dtd">
<svg version="1.0" xmlns="http://www.w3.org/2000/svg"
 width="700.000000pt" height="700.000000pt" viewBox="0 0 700.000000 700.000000"
 preserveAspectRatio="xMidYMid meet">
<metadata>
Created by potrace 1.11, written by Peter Selinger 2001-2013
</metadata>
<g transform="translate(0.000000,700.000000) scale(0.100000,-0.100000)"
fill="#000000" stroke="none">
<path d="M455 6799 c-5 -7 -7 -179 -6 -439 l1 -186 1930 0 1930 0 0 316 0 315
-1453 -1 c-798 -1 -1456 -3 -1462 -4 -5 -1 -14 -1 -20 0 -20 6 -917 5 -920 -1z"/>
<path d="M2412 4341 c-1 -350 -1 -644 -1 -653 -1 -17 -41 -18 -653 -20 l-653
-3 1 -215 1 -216 -216 1 -216 0 -3 -655 -2 -655 217 0 218 0 0 -215 1 -215
1089 0 1090 0 0 1740 0 1740 -437 1 -436 1 0 -636z m-2 -1116 c1 -5 2 -299 3
-653 l2 -642 -35 0 c-43 -1 -751 -1 -802 0 l-37 0 0 647 c0 356 4 650 9 653
16 10 860 5 860 -5z"/>
<path d="M5904 4098 c-3 -4 -5 -102 -4 -218 l0 -210 -872 -2 -873 -3 -1 -210
c-1 -115 -2 -212 -3 -215 0 -3 -97 -5 -213 -5 l-213 0 -3 -218 -2 -217 32 -1
c18 0 115 0 216 0 100 0 183 -3 183 -7 1 -4 2 -102 3 -218 l1 -211 -217 1
-218 1 0 -217 0 -218 38 -1 c46 0 267 0 342 0 l55 1 0 211 c0 124 4 213 10
217 5 3 396 6 870 6 l860 1 2 145 c1 80 2 177 3 217 l0 71 211 0 c116 0 213 3
217 7 3 3 7 100 7 215 0 201 -1 209 -20 212 -11 2 -108 3 -215 3 l-195 0 -5
110 c-3 60 -4 158 -2 217 l3 108 217 2 216 3 0 215 0 215 -213 0 c-117 1 -215
-3 -217 -7z m-444 -867 c4 -1 5 -340 1 -413 -1 -17 -29 -18 -436 -18 l-435 0
0 213 c0 118 2 216 4 218 4 3 850 4 866 0z"/>
<path d="M4164 1922 c-6 -4 -9 -87 -9 -207 1 -110 -1 -206 -3 -212 -3 -10 -56
-13 -218 -13 l-214 0 0 -435 0 -435 218 -2 217 -3 0 -205 c0 -113 3 -210 7
-215 4 -7 303 -10 870 -10 l863 0 2 160 c1 88 3 186 3 218 l0 57 218 0 217 0
0 435 0 435 -217 0 -218 0 0 219 0 220 -863 0 c-475 0 -867 -3 -873 -7z m1297
-449 c1 -22 1 -823 0 -840 -1 -10 -95 -13 -436 -13 l-435 0 0 435 0 435 435 0
c407 0 435 -1 436 -17z"/>
</g>
</svg>
