<svg xmlns="http://www.w3.org/2000/svg" width="360" height="192" viewBox="0 0 360 192">
  <g id="Group_40" data-name="Group 40" transform="translate(-1308 -483)">
    <path id="Path_41" data-name="Path 41" d="M12,96V72H36V48H60V24h48V48H84V72H60V96H84v24h24v24H60V120H36V96Zm264,48V120h24V96h24V72H300V48H276V24h48V48h24V72h24V96H348v24H324v24Z" transform="translate(1296 495)" fill="#fff"/>
    <path id="Path_42" data-name="Path 42" d="M132,192V144h24V96h24V48h24V0h48V48H228V96H204v48H180v48Z" transform="translate(1296 483)" fill="#5cccc8"/>
  </g>
</svg>
