<svg xmlns="http://www.w3.org/2000/svg" width="267" height="327.682" viewBox="0 0 267 327.682">
  <g id="Group_38" data-name="Group 38" transform="translate(-1101 -429)">
    <g id="pixels" transform="translate(1101 429)">
      <g id="Group_25" data-name="Group 25" transform="translate(0)">
        <g id="Group_24" data-name="Group 24">
          <path id="Path_46" data-name="Path 46" d="M265.863,157.773v24.209l-24.273.127V157.932l-145.219-.127.291-73.487a60.374,60.374,0,0,1,120.746.657l24.273.132A84.744,84.744,0,0,0,157.5,0h-.47A84.862,84.862,0,0,0,72.389,84.2L72.1,157.785l-24.69-.022V327.682H265.863V182.045h24.273V157.773H265.863ZM241.59,303.409H71.68V182.057l145.637.126v24.325l24.273-.126Z" transform="translate(-47.408)" fill="#fff"/>
        </g>
      </g>
      <g id="Group_27" data-name="Group 27" transform="translate(96.509 218.161)">
        <g id="Group_26" data-name="Group 26">
          <rect id="Rectangle_71" data-name="Rectangle 71" width="48.546" height="24.273" transform="translate(0 48.546) rotate(-89.691)" fill="#5cccc8"/>
        </g>
      </g>
      <g id="Group_29" data-name="Group 29" transform="translate(242.727 84.955)">
        <g id="Group_28" data-name="Group 28">
          <rect id="Rectangle_72" data-name="Rectangle 72" width="24.273" height="24.273" fill="#5cccc8"/>
        </g>
      </g>
      <g id="Group_31" data-name="Group 31" transform="translate(218.455 109.228)">
        <g id="Group_30" data-name="Group 30">
          <rect id="Rectangle_73" data-name="Rectangle 73" width="24.273" height="24.273" fill="#5cccc8"/>
        </g>
      </g>
      <g id="Group_33" data-name="Group 33" transform="translate(194.182 133.5)">
        <g id="Group_32" data-name="Group 32">
          <rect id="Rectangle_74" data-name="Rectangle 74" width="24.273" height="24.273" fill="#5cccc8"/>
        </g>
      </g>
      <g id="Group_35" data-name="Group 35" transform="translate(169.909 109.228)">
        <g id="Group_34" data-name="Group 34">
          <rect id="Rectangle_75" data-name="Rectangle 75" width="24.273" height="24.273" fill="#5cccc8"/>
        </g>
      </g>
      <g id="Group_37" data-name="Group 37" transform="translate(242.727 182.045)">
        <g id="Group_36" data-name="Group 36">
          <rect id="Rectangle_76" data-name="Rectangle 76" width="24.273" height="24.273" fill="#5cccc8"/>
        </g>
      </g>
    </g>
    <rect id="Rectangle_77" data-name="Rectangle 77" width="25" height="25" transform="translate(1319 586)" fill="#5cccc8"/>
  </g>
</svg>
